<svg xmlns="http://www.w3.org/2000/svg" xmlns:xlink="http://www.w3.org/1999/xlink" width="32" zoomAndPan="magnify" viewBox="0 0 375 374.999991" height="32" preserveAspectRatio="xMidYMid meet" version="1.0"><defs><g/></defs><g fill="#38b6ff" fill-opacity="1"><g transform="translate(160.560815, 182.382273)"><g><path d="M 51.5 -74.210938 C 51.5 -62.589844 35.917969 -62.589844 35.917969 -62.589844 L 20.070312 -62.589844 L 20.070312 -86.757812 L 35.917969 -86.757812 C 35.917969 -86.757812 51.5 -86.886719 51.5 -74.210938 Z M 71.703125 -75.398438 C 71.703125 -106.429688 35.917969 -105.640625 35.917969 -105.640625 L 1.453125 -105.640625 C 0.660156 -105.640625 0 -104.980469 0 -104.449219 L 0 -42.914062 L 35.917969 -42.914062 C 35.917969 -42.914062 52.953125 -43.707031 52.953125 -31.296875 C 52.953125 -21.128906 42.519531 -19.277344 35.917969 -19.277344 L 20.203125 -19.277344 L 20.203125 0 L 35.917969 0 C 43.046875 0 73.15625 -1.320312 73.15625 -30.765625 C 73.15625 -30.765625 73.816406 -47.140625 57.046875 -52.820312 C 65.101562 -56.121094 71.703125 -63.121094 71.703125 -75.398438 Z M 71.703125 -75.398438 "/></g></g></g><g fill="#ebe9e3" fill-opacity="1"><g transform="translate(91.735665, 182.382273)"><g><path d="M 51.5 -74.210938 C 51.5 -62.589844 35.917969 -62.589844 35.917969 -62.589844 L 20.070312 -62.589844 L 20.070312 -86.757812 L 35.917969 -86.757812 C 35.917969 -86.757812 51.5 -86.886719 51.5 -74.210938 Z M 71.703125 -75.398438 C 71.703125 -106.429688 35.917969 -105.640625 35.917969 -105.640625 L 1.453125 -105.640625 C 0.660156 -105.640625 0 -104.980469 0 -104.449219 L 0 -42.914062 L 35.917969 -42.914062 C 35.917969 -42.914062 52.953125 -43.707031 52.953125 -31.296875 C 52.953125 -21.128906 42.519531 -19.277344 35.917969 -19.277344 L 20.203125 -19.277344 L 20.203125 0 L 35.917969 0 C 43.046875 0 73.15625 -1.320312 73.15625 -30.765625 C 73.15625 -30.765625 73.816406 -47.140625 57.046875 -52.820312 C 65.101562 -56.121094 71.703125 -63.121094 71.703125 -75.398438 Z M 71.703125 -75.398438 "/></g></g></g><g fill="#e4e2dd" fill-opacity="1"><g transform="translate(161.946277, 225.028636)"><g><path d="M 14.199219 -79.996094 L 1.101562 -79.996094 C 0.5 -79.996094 0 -79.496094 0 -79.097656 L 0 -47.699219 L 15.300781 -47.699219 L 15.300781 -65.398438 C 32.699219 -66.296875 45.597656 -59 45.597656 -40 C 45.597656 -15.300781 25 -14.300781 15.300781 -14.699219 L 15.300781 -32.300781 L 0 -32.300781 L 0 -0.898438 C 0 -0.5 0.5 0 1.101562 0 L 14.199219 0 C 34.097656 0 61 -5.800781 61 -40 C 61 -75.5 33.699219 -79.996094 14.199219 -79.996094 Z M 14.199219 -79.996094 "/></g></g></g><g fill="#38b6ff" fill-opacity="1"><g transform="translate(119.776381, 244.802679)"><g><path d="M 41.703125 -65.101562 L 31.203125 -35.800781 L 15.601562 -79.402344 C 15.5 -79.804688 15.101562 -80.003906 14.601562 -80.003906 L 1 -80.003906 C 0.199219 -80.003906 -0.199219 -79.402344 0.101562 -78.804688 L 30.203125 -0.5 C 30.601562 0.199219 31.800781 0.199219 32.101562 -0.5 L 57.101562 -65.101562 Z M 41.703125 -65.101562 "/></g></g></g></svg>